<svg xmlns="http://www.w3.org/2000/svg" viewBox="0 0 256 256" style="enable-background:new 0 0 256 256" xml:space="preserve"><style>.st2{fill:none;stroke:#6b1d1d;stroke-width:.5;stroke-miterlimit:10}.st3{fill:#3a312a}.st4{fill:#87796f}.st12,.st7{fill:#fce8cb}.st12{fill-rule:evenodd;clip-rule:evenodd}.st13{fill:#f5978a}.st14{fill:#d7e057}</style><g id="Layer_1"><path class="st4" d="M222.394 180.635H33.605c-9.447 0-17.105-7.658-17.105-17.105V33.241c0-9.447 7.658-17.106 17.105-17.106h188.789c9.447 0 17.106 7.659 17.106 17.106V163.53c0 9.447-7.658 17.105-17.106 17.105z"/><path class="st3" d="M222.394 182.135H33.605C23.346 182.135 15 173.789 15 163.53V33.241c0-10.259 8.346-18.605 18.605-18.605h188.789c10.259 0 18.606 8.346 18.606 18.605V163.53c0 10.259-8.346 18.605-18.606 18.605zM33.605 17.635C25 17.635 18 24.636 18 33.241V163.53c0 8.605 7 15.606 15.605 15.606h188.789c8.605 0 15.606-7.001 15.606-15.606V33.241c0-8.605-7.001-15.605-15.606-15.605H33.605z"/><path class="st14" d="M86.201 28.635h-45.17c-6.583 0-11.92 5.337-11.92 11.92v115.66c0 6.583 5.337 11.92 11.92 11.92h173.938c6.583 0 11.92-5.337 11.92-11.92V40.555c0-6.583-5.337-11.92-11.92-11.92H86.201z"/><path class="st3" d="M214.969 169.635H41.031c-7.4 0-13.42-6.02-13.42-13.42V40.555c0-7.4 6.02-13.42 13.42-13.42h45.17a1.5 1.5 0 1 1 0 3h-45.17c-5.746 0-10.42 4.674-10.42 10.42v115.66c0 5.746 4.674 10.42 10.42 10.42h173.938c5.746 0 10.42-4.674 10.42-10.42V40.555c0-5.746-4.674-10.42-10.42-10.42H99.799a1.5 1.5 0 1 1 0-3h115.17c7.4 0 13.42 6.02 13.42 13.42v115.66c0 7.4-6.02 13.42-13.42 13.42z"/><path class="st4" d="M113.687 180.635h28.625v35.593h-28.625z"/><path class="st3" d="M142.312 217.729h-28.625a1.5 1.5 0 0 1-1.5-1.5v-35.593a1.5 1.5 0 0 1 1.5-1.5h28.625a1.5 1.5 0 0 1 1.5 1.5v35.593a1.5 1.5 0 0 1-1.5 1.5zm-27.125-3h25.625v-32.593h-25.625v32.593z"/><path class="st4" d="M135.451 239.635h36.252c0-12.927-10.48-23.407-23.407-23.407h-40.593c-12.927 0-23.407 10.479-23.407 23.407h51.155z"/><path class="st3" d="M171.703 241.135h-36.251a1.5 1.5 0 1 1 0-3h34.701c-.773-11.382-10.281-20.407-21.856-20.407h-40.593c-11.575 0-21.082 9.024-21.856 20.407h36.034a1.5 1.5 0 1 1 0 3H84.297a1.5 1.5 0 0 1-1.5-1.5c0-13.733 11.173-24.907 24.907-24.907h40.593c13.733 0 24.907 11.173 24.907 24.907a1.5 1.5 0 0 1-1.501 1.5z"/><path class="st14" d="M47.671 203.469s3.408 12.659 13.222 13.247c0 0-13.1 4.525-13.321 14.202 0 0-2.579-13.572-12.925-14.059 0 0 12.05-1.826 13.024-13.39z"/><path class="st3" d="M47.57 232.417a1.501 1.501 0 0 1-1.472-1.217c-.024-.124-2.495-12.417-11.523-12.842a1.5 1.5 0 0 1-.154-2.982c.441-.069 10.895-1.817 11.755-12.033a1.5 1.5 0 0 1 2.942-.265c.032.116 3.259 11.626 11.863 12.141a1.5 1.5 0 0 1 .402 2.915c-.121.042-12.118 4.311-12.313 12.819a1.5 1.5 0 0 1-1.5 1.464zm-7.74-15.729c3.878 1.969 6.23 5.746 7.587 8.877 2.026-4.021 5.942-6.787 8.949-8.427-4.135-1.842-6.783-5.651-8.334-8.723-1.793 4.359-5.272 6.868-8.202 8.273z"/><path class="st14" d="M25.972 220.45s2.411 8.954 9.352 9.369c0 0-9.266 3.201-9.422 10.046 0 0-1.824-9.6-9.142-9.944 0 0 8.524-1.292 9.212-9.471z"/><path class="st3" d="M25.9 241.365a1.5 1.5 0 0 1-1.472-1.22c-.016-.082-1.704-8.441-7.739-8.726a1.5 1.5 0 0 1-.153-2.981c.296-.047 7.364-1.243 7.942-8.114a1.5 1.5 0 0 1 2.942-.266c.021.079 2.228 7.92 7.994 8.265a1.5 1.5 0 0 1 .4 2.915c-.081.028-8.282 2.952-8.413 8.662a1.5 1.5 0 0 1-1.376 1.461c-.042.002-.083.004-.125.004zm-4.518-11.528c2.107 1.333 3.524 3.394 4.447 5.28 1.376-2.232 3.515-3.872 5.365-4.973-2.287-1.27-3.884-3.35-4.941-5.224-1.174 2.288-3.015 3.876-4.871 4.917z"/><path class="st14" d="M25.972 193.792s2.411 8.954 9.352 9.369c0 0-9.266 3.201-9.422 10.046 0 0-1.824-9.6-9.142-9.944 0 0 8.524-1.291 9.212-9.471z"/><path class="st3" d="M25.901 214.708a1.5 1.5 0 0 1-1.473-1.22c-.016-.081-1.704-8.442-7.739-8.726a1.5 1.5 0 0 1-.153-2.982c.296-.047 7.364-1.243 7.942-8.113a1.5 1.5 0 0 1 2.942-.266c.021.079 2.228 7.919 7.994 8.264a1.5 1.5 0 0 1 .4 2.915c-.081.028-8.282 2.953-8.413 8.662a1.5 1.5 0 0 1-1.5 1.466zm-4.519-11.528c2.107 1.333 3.523 3.395 4.447 5.28 1.376-2.232 3.515-3.872 5.365-4.973-2.287-1.269-3.884-3.35-4.941-5.223-1.174 2.286-3.015 3.875-4.871 4.916zM55.465 169.635a1.5 1.5 0 0 1-1.5-1.5v-13.339a1.5 1.5 0 1 1 3 0v13.339a1.5 1.5 0 0 1-1.5 1.5zM125.019 169.635a1.5 1.5 0 0 1-1.5-1.5v-13.339a1.5 1.5 0 1 1 3 0v13.339a1.5 1.5 0 0 1-1.5 1.5z"/><circle transform="rotate(-87.151 122.032 94.73)" class="st12" cx="122.032" cy="94.734" r="7.328"/><path class="st3" d="M122.032 103.563c-4.868 0-8.828-3.96-8.828-8.828 0-4.868 3.96-8.829 8.828-8.829 4.868 0 8.829 3.96 8.829 8.829 0 4.867-3.961 8.828-8.829 8.828zm0-14.657a5.835 5.835 0 0 0-5.828 5.829 5.834 5.834 0 0 0 5.828 5.828 5.835 5.835 0 0 0 5.829-5.828 5.836 5.836 0 0 0-5.829-5.829z"/><path class="st4" d="M54.744 76.953h69.725v79.806H54.744z"/><path class="st3" d="M124.469 158.259H54.744a1.5 1.5 0 0 1-1.5-1.5V76.953a1.5 1.5 0 0 1 1.5-1.5h69.725a1.5 1.5 0 0 1 1.5 1.5v79.806a1.5 1.5 0 0 1-1.5 1.5zm-68.225-3h66.725V78.453H56.244v76.806z"/><path class="st7" d="M131.34 168.135v-8.447c0-10.286-8.338-18.624-18.624-18.624H100.41v-7.997c-3.403 2.359-6.925 3.752-10.342 3.752-3.278 0-6.737-1.406-10.127-3.794h-.209v8.039H67.421c-10.286 0-18.624 8.338-18.624 18.624v8.447h82.543z"/><path class="st3" d="M131.339 169.635H48.796a1.5 1.5 0 0 1-1.5-1.5v-8.447c0-11.096 9.028-20.124 20.124-20.124h10.812v-6.539a1.5 1.5 0 0 1 1.5-1.5h.208c.309 0 .611.096.864.274 3.315 2.335 6.432 3.52 9.263 3.52 2.96 0 6.153-1.172 9.488-3.484a1.501 1.501 0 0 1 2.354 1.233v6.497h10.805c11.096 0 20.124 9.028 20.124 20.124v8.447a1.498 1.498 0 0 1-1.499 1.499zm-81.043-3h79.543v-6.947c0-9.442-7.682-17.124-17.124-17.124H100.41a1.5 1.5 0 0 1-1.5-1.5v-5.291c-3.028 1.691-5.994 2.545-8.842 2.545-2.808 0-5.771-.9-8.835-2.681v5.427a1.5 1.5 0 0 1-1.5 1.5H67.42c-9.442 0-17.124 7.682-17.124 17.124v6.947z"/><path d="M131.34 168.135v-8.452c0-10.286-8.338-18.625-18.625-18.625h-2.944l.077.056-12.799 16.975-6.605-4.976-6.605 4.976-12.799-16.975.076-.056H67.42c-10.286 0-18.624 8.338-18.624 18.625v8.452h82.544z" style="fill:#f16c7a"/><path class="st3" d="M131.34 169.635H48.796a1.5 1.5 0 0 1-1.5-1.5v-8.452c0-11.097 9.028-20.125 20.124-20.125h3.696a1.5 1.5 0 0 1 1.426 1.034l.012.04 11.58 15.357 5.407-4.075a1.502 1.502 0 0 1 1.806 0l5.407 4.074 11.669-15.477c.227-.56.738-.954 1.348-.954h2.944c11.097 0 20.125 9.028 20.125 20.125v8.452a1.5 1.5 0 0 1-1.5 1.501zm-81.044-3h79.543v-6.952c0-9.443-7.682-17.125-17.125-17.125h-2.077l-12.392 16.434a1.5 1.5 0 0 1-2.101.295l-5.702-4.296-5.702 4.297a1.501 1.501 0 0 1-2.101-.295L70.25 142.558h-2.829c-9.442 0-17.124 7.682-17.124 17.125v6.952z"/><circle transform="rotate(-9.341 58.08 94.887)" class="st12" cx="58.087" cy="94.895" r="7.328"/><path class="st3" d="M58.087 103.723c-4.868 0-8.828-3.96-8.828-8.828 0-4.868 3.96-8.829 8.828-8.829 4.868 0 8.829 3.961 8.829 8.829s-3.96 8.828-8.829 8.828zm0-14.657a5.835 5.835 0 0 0-5.828 5.829 5.834 5.834 0 0 0 5.828 5.828 5.835 5.835 0 0 0 5.829-5.828 5.836 5.836 0 0 0-5.829-5.829z"/><path class="st12" d="M129.379 94.895a7.328 7.328 0 1 1-14.656 0 7.328 7.328 0 0 1 14.656 0z"/><path class="st3" d="M122.051 103.723c-4.868 0-8.828-3.96-8.828-8.828 0-4.868 3.96-8.829 8.828-8.829s8.828 3.961 8.828 8.829-3.961 8.828-8.828 8.828zm0-14.657a5.835 5.835 0 0 0-5.828 5.829 5.834 5.834 0 0 0 5.828 5.828 5.834 5.834 0 0 0 5.828-5.828 5.835 5.835 0 0 0-5.828-5.829z"/><path class="st7" d="M122.556 91.338c0 17.942-17.28 45.482-32.487 45.482-14.516 0-32.487-27.54-32.487-45.482s14.545-32.487 32.487-32.487c17.942-.001 32.487 14.545 32.487 32.487z"/><path class="st3" d="M90.069 138.319c-7.25 0-15.605-6.072-22.921-16.66-6.826-9.878-11.066-21.497-11.066-30.322 0-18.74 15.247-33.987 33.987-33.987 18.74 0 33.987 15.247 33.987 33.987 0 18.978-17.903 46.982-33.987 46.982zm0-77.968c-17.086 0-30.987 13.9-30.987 30.987 0 16.712 17.311 43.982 30.987 43.982 6.412 0 14.153-5.741 20.707-15.357 6.341-9.304 10.28-20.272 10.28-28.624 0-17.088-13.9-30.988-30.987-30.988z"/><path class="st3" d="M81.77 90.971a3.171 3.171 0 1 1-6.343 0 3.171 3.171 0 0 1 6.343 0zM104.71 90.971a3.171 3.171 0 1 1-6.343 0 3.171 3.171 0 0 1 6.343 0z"/><path class="st13" d="M77.724 100.398c0 2.255-2.446 4.083-5.462 4.083-3.017 0-5.462-1.828-5.462-4.083s2.446-4.083 5.462-4.083c3.017 0 5.462 1.828 5.462 4.083zM113.338 100.398c0 2.255-2.445 4.083-5.462 4.083s-5.462-1.828-5.462-4.083 2.445-4.083 5.462-4.083 5.462 1.828 5.462 4.083z"/><path transform="rotate(-37.001 80.767 147.112)" class="st4" d="M76.605 136.471h8.305v21.259h-8.305z"/><path class="st3" d="M83.839 159.589c-.455 0-.904-.206-1.199-.597l-12.795-16.978a1.5 1.5 0 0 1 .295-2.101l6.632-4.999a1.496 1.496 0 0 1 2.1.295l12.795 16.978a1.5 1.5 0 0 1-.294 2.1l-6.633 4.998a1.475 1.475 0 0 1-.901.304zm-10.695-18.183 10.99 14.582 4.237-3.193-10.99-14.582-4.237 3.193z"/><path transform="rotate(-142.997 100.133 147.098)" class="st4" d="M95.978 136.471h8.305v21.259h-8.305z"/><path class="st3" d="M97.048 159.589c-.314 0-.631-.098-.902-.302l-6.632-4.998a1.5 1.5 0 0 1-.295-2.1l12.795-16.978a1.5 1.5 0 0 1 2.1-.295l6.632 4.999a1.5 1.5 0 0 1 .295 2.1l-12.795 16.978c-.294.39-.743.596-1.198.596zm-4.53-6.793 4.237 3.192 10.99-14.582-4.237-3.193-10.99 14.583zM90.068 119.189c-4.82 0-8.296-2.167-10.331-6.442a1.5 1.5 0 0 1 2.709-1.289c1.537 3.228 3.958 4.731 7.622 4.731 4.622 0 6.975-3.018 7.572-4.613a1.5 1.5 0 0 1 2.809 1.053c-1.183 3.159-4.937 6.56-10.381 6.56z"/><path class="st4" d="M127.041 79.431c0 3.328-.433 6.555-1.251 9.627-8.321-4.012-16.236-8.937-23.569-14.504-2.151-1.631-4.269-3.329-6.292-5.128-2.483-2.178-4.83-4.526-6.948-7.069-4.607-5.547-7.989-11.92-10.851-18.556A37.121 37.121 0 0 1 89.604 42c10.709 0 20.369 4.499 27.195 11.71a37.262 37.262 0 0 1 10.242 25.721z"/><path class="st3" d="M125.79 90.557c-.223 0-.446-.05-.651-.149-8.206-3.956-16.222-8.888-23.825-14.66-2.426-1.839-4.514-3.542-6.381-5.202-2.666-2.34-5.059-4.774-7.103-7.23-4.14-4.985-7.659-10.997-11.076-18.922a1.5 1.5 0 0 1 .915-2.021A38.653 38.653 0 0 1 89.604 40.5c10.806 0 20.852 4.325 28.285 12.179 6.87 7.249 10.653 16.75 10.653 26.752 0 3.403-.438 6.772-1.302 10.013a1.501 1.501 0 0 1-1.45 1.113zM80.187 44.751c3.086 6.895 6.269 12.215 9.949 16.646 1.943 2.334 4.226 4.657 6.783 6.9 1.815 1.615 3.844 3.268 6.209 5.06 6.926 5.258 14.198 9.803 21.64 13.526.515-2.433.774-4.932.774-7.453 0-9.231-3.491-17.999-9.831-24.689C108.849 47.492 99.578 43.5 89.604 43.5c-3.207 0-6.367.42-9.417 1.251z"/><path class="st4" d="M116.799 53.71c-6.44 5.872-13.449 11.068-20.87 15.715-13.158 8.247-27.587 14.755-42.355 20.174a37.365 37.365 0 0 1-1.4-10.168c0-16.669 10.898-30.794 25.957-35.631A37.14 37.14 0 0 1 89.604 42c10.709 0 20.369 4.499 27.195 11.71z"/><path class="st3" d="M53.574 91.099a1.497 1.497 0 0 1-1.443-1.092 38.905 38.905 0 0 1-1.457-10.576c0-16.979 10.85-31.872 26.999-37.06A38.667 38.667 0 0 1 89.604 40.5c10.806 0 20.852 4.325 28.285 12.179a1.502 1.502 0 0 1-.078 2.139c-6.216 5.667-13.31 11.009-21.085 15.878-12.084 7.574-26.03 14.217-42.635 20.31a1.493 1.493 0 0 1-.517.093zM89.604 43.5c-3.77 0-7.474.581-11.011 1.727-14.907 4.788-24.92 18.533-24.92 34.204 0 2.77.315 5.516.938 8.185 15.724-5.862 28.993-12.236 40.521-19.461 7.143-4.473 13.695-9.349 19.497-14.508C107.891 47.091 99.063 43.5 89.604 43.5zM207.204 55.5h-54.5a1.5 1.5 0 1 1 0-3h54.5a1.5 1.5 0 1 1 0 3zM207.204 73.5h-54.5a1.5 1.5 0 1 1 0-3h54.5a1.5 1.5 0 1 1 0 3zM207.204 91.5h-54.5a1.5 1.5 0 1 1 0-3h54.5a1.5 1.5 0 1 1 0 3zM207.204 109.5h-54.5a1.5 1.5 0 1 1 0-3h54.5a1.5 1.5 0 1 1 0 3zM207.204 127.5h-54.5a1.5 1.5 0 1 1 0-3h54.5a1.5 1.5 0 1 1 0 3zM207.204 145.5h-54.5a1.5 1.5 0 1 1 0-3h54.5a1.5 1.5 0 1 1 0 3z"/><path d="M210.39 40.555v115.66c0 5.75-4.679 10.419-10.419 10.42h-.001 15c5.74 0 10.42-4.67 10.42-10.42V40.555c0-5.75-4.68-10.42-10.42-10.42h-15c5.74 0 10.42 4.67 10.42 10.42z" style="fill:#b9c239"/></g></svg>